<svg xmlns="http://www.w3.org/2000/svg" width="136" height="64" viewBox="0 0 136 64">
  <g id="adobe_xd_logo" transform="translate(-1925 -6805)">
    <rect id="frame" width="136" height="64" transform="translate(1925 6805)" fill="none"/>
    <g id="Layer_2_1_" transform="translate(1961 6805)">
      <g id="Surfaces">
        <g id="UI_UX_Surface">
          <g id="Outline_no_shadow">
            <path id="Path_11606" data-name="Path 11606" d="M11.624,0H54.017A11.614,11.614,0,0,1,65.641,11.624V52.376A11.614,11.614,0,0,1,54.017,64H11.624A11.614,11.614,0,0,1,0,52.376V11.624A11.614,11.614,0,0,1,11.624,0Z" fill="#470137"/>
          </g>
        </g>
      </g>
      <g id="Outlined_Mnemonics_Logos" transform="translate(9.562 14.027)">
        <g id="Xd">
          <path id="Path_11607" data-name="Path 11607" d="M59.915,60.41,51.71,73.949l8.752,14.359a.471.471,0,0,1,.055.328c-.027.109-.137.027-.3.055H53.953c-.438,0-.738-.027-.93-.3-.574-1.149-1.176-2.27-1.75-3.419-.574-1.121-1.2-2.27-1.86-3.446s-1.313-2.352-1.969-3.556h-.055c-.574,1.176-1.2,2.352-1.832,3.528S44.3,83.85,43.7,85c-.629,1.149-1.258,2.325-1.887,3.446-.109.274-.328.3-.629.3H35.163c-.109,0-.191.055-.191-.082a.38.38,0,0,1,.055-.3l8.506-13.949L35.245,60.383c-.082-.109-.109-.219-.055-.274A.317.317,0,0,1,35.464,60h6.209a1.614,1.614,0,0,1,.383.055.776.776,0,0,1,.274.246c.52,1.176,1.121,2.352,1.75,3.528.656,1.176,1.285,2.325,1.969,3.474.656,1.149,1.258,2.3,1.832,3.474h.055c.574-1.2,1.176-2.379,1.778-3.528s1.231-2.3,1.86-3.446,1.231-2.325,1.832-3.446a.465.465,0,0,1,.164-.274.522.522,0,0,1,.356-.055H59.7a.252.252,0,0,1,.3.191c.027.027-.027.137-.082.191Z" transform="translate(-34.961 -57.616)" fill="#ff61f6"/>
          <path id="Path_11608" data-name="Path 11608" d="M141.812,82.933a13.6,13.6,0,0,1-5.88-1.231,9.535,9.535,0,0,1-4.13-3.72,11.834,11.834,0,0,1-1.5-6.236,11.233,11.233,0,0,1,1.5-5.771,11.358,11.358,0,0,1,4.349-4.239,13.99,13.99,0,0,1,6.92-1.586,4.884,4.884,0,0,1,.574.027c.246.027.52.027.848.055V51.59c0-.191.082-.3.273-.3h5.552a.245.245,0,0,1,.273.191V77.572c0,.492.027,1.039.055,1.641.055.574.082,1.121.109,1.586a.444.444,0,0,1-.273.438,20.888,20.888,0,0,1-4.458,1.313A24.126,24.126,0,0,1,141.812,82.933Zm2.68-5.47V65.429a7,7,0,0,0-.738-.137c-.3-.027-.6-.055-.9-.055a6.742,6.742,0,0,0-3.091.711,6.131,6.131,0,0,0-2.325,2.024,6.063,6.063,0,0,0-.9,3.474A7.622,7.622,0,0,0,137,74.263a5.346,5.346,0,0,0,1.231,1.942,4.725,4.725,0,0,0,1.86,1.094,7.159,7.159,0,0,0,2.27.356c.41,0,.793-.027,1.149-.055A2.392,2.392,0,0,0,144.492,77.463Z" transform="translate(-104.222 -51.284)" fill="#ff61f6"/>
        </g>
      </g>
    </g>
  </g>
</svg>
