<svg xmlns="http://www.w3.org/2000/svg" width="21" height="13.678" viewBox="0 0 21 13.678">
  <g id="Group_3488" data-name="Group 3488" transform="translate(-1661.5 -2277.822)">
    <rect id="Rectangle_43" data-name="Rectangle 43" width="20" height="13" transform="translate(1662 2278)" fill="none"/>
    <path id="Union_2" data-name="Union 2" d="M427.419,349.045c-.007-.344,0-.688,0-1.033s-.006-.688,0-1.033a.921.921,0,1,1,1.84,0q.009,1.032,0,2.065a.927.927,0,0,1-.906.956h-.01A.932.932,0,0,1,427.419,349.045Zm0-5.721c-.009-.1-.005-.2-.005-.3q0-4.753,0-9.507v-.331c-.094.089-.156.144-.214.2q-1.782,1.8-3.564,3.605a.926.926,0,0,1-1.46-1.138,2.393,2.393,0,0,1,.229-.254q2.479-2.508,4.962-5.012a8.981,8.981,0,0,1,.723-.594h.487a8.525,8.525,0,0,1,.707.577q2.514,2.525,5.015,5.063a1.043,1.043,0,0,1,.368.772.887.887,0,0,1-.509.829.86.86,0,0,1-.959-.1,1.9,1.9,0,0,1-.214-.2l-3.5-3.535c-.062-.062-.126-.122-.232-.225v.33q0,4.827,0,9.654a.933.933,0,0,1-.867,1.02h-.039A.922.922,0,0,1,427.422,343.324Z" transform="translate(2012 1856.329) rotate(90)" fill="#222" stroke="rgba(0,0,0,0)" stroke-width="1"/>
  </g>
</svg>
