<svg xmlns="http://www.w3.org/2000/svg" width="100" height="100" viewBox="0 0 100 100">
  <g id="close_quote" opacity="0.06">
    <rect id="Rectangle_185" data-name="Rectangle 185" width="100" height="100" transform="translate(0)" fill="none"/>
    <g id="quote" transform="translate(0 14.063)">
      <path id="Path_11568" data-name="Path 11568" d="M40.586,0H2.93A2.929,2.929,0,0,0,0,2.93V40.586a2.929,2.929,0,0,0,2.93,2.93h15.9V68.829a2.93,2.93,0,0,0,2.93,2.93h9.415a2.928,2.928,0,0,0,2.779-2l9.414-28.243a2.916,2.916,0,0,0,.151-.926V2.93A2.929,2.929,0,0,0,40.586,0Zm0,0"/>
      <path id="Path_11569" data-name="Path 11569" d="M329.785,0H292.129a2.929,2.929,0,0,0-2.93,2.93V40.586a2.929,2.929,0,0,0,2.93,2.93h15.9V68.829a2.93,2.93,0,0,0,2.93,2.93h9.414a2.93,2.93,0,0,0,2.779-2l9.414-28.243a2.936,2.936,0,0,0,.15-.926V2.93A2.929,2.929,0,0,0,329.785,0Zm0,0" transform="translate(-232.715)"/>
    </g>
  </g>
</svg>
