<svg xmlns="http://www.w3.org/2000/svg" width="136" height="64" viewBox="0 0 136 64">
  <g id="github_logo" transform="translate(-4031 -4861)">
    <rect id="frame" width="136" height="64" transform="translate(4031 4861)" fill="none"/>
    <g id="Layer_2" data-name="Layer 2" transform="translate(4030.996 4878)">
      <g id="Layer_1" data-name="Layer 1" transform="translate(0.004 0)">
        <path id="Path_11700" data-name="Path 11700" d="M162.711,18.781h-8.163a.383.383,0,0,0-.383.38v3.991a.386.386,0,0,0,.383.383h3.184V28.5a9.709,9.709,0,0,1-2.7.243c-2.331,0-5.591-.853-5.591-8.017s3.395-8.1,6.579-8.1a12.878,12.878,0,0,1,4.7.72.383.383,0,0,0,.456-.375l.912-3.856a.362.362,0,0,0-.146-.3c-.308-.219-2.18-1.266-6.911-1.266C149.591,7.536,144,9.854,144,21s6.4,12.807,11.792,12.807a13.269,13.269,0,0,0,7.175-1.91c.113-.059.124-.216.124-.289V19.161A.38.38,0,0,0,162.711,18.781Z" transform="translate(-105.144 -5.513)" fill="#fff"/>
        <path id="Path_11701" data-name="Path 11701" d="M320.874,11.391a.378.378,0,0,0-.378-.383h-4.587a.383.383,0,0,0-.38.383v8.883h-7.172V11.391a.38.38,0,0,0-.38-.391h-4.587a.38.38,0,0,0-.389.391V35.442a.383.383,0,0,0,.38.386h4.587a.383.383,0,0,0,.38-.386V25.156h7.172V35.442a.383.383,0,0,0,.38.386h4.609a.38.38,0,0,0,.378-.386Z" transform="translate(-221.238 -8.031)" fill="#fff"/>
        <path id="Path_11702" data-name="Path 11702" d="M229.417,16.181a2.968,2.968,0,1,0-.86,2.116A2.968,2.968,0,0,0,229.417,16.181Z" transform="translate(-163.177 -9.667)" fill="#fff"/>
        <path id="Path_11703" data-name="Path 11703" d="M229.744,51.7V40.6a.38.38,0,0,0-.38-.38h-4.587a.434.434,0,0,0-.4.426V56.567c0,.467.291.6.667.6h4.129c.453,0,.564-.221.564-.613Z" transform="translate(-163.834 -29.367)" fill="#fff"/>
        <path id="Path_11704" data-name="Path 11704" d="M392.812,40.35h-4.568a.38.38,0,0,0-.378.383V52.528a5.162,5.162,0,0,1-2.8.847c-1.646,0-2.081-.747-2.081-2.356V40.733a.383.383,0,0,0-.38-.383H377.97a.383.383,0,0,0-.38.383V51.8c0,4.784,2.666,5.955,6.333,5.955a10.69,10.69,0,0,0,5.435-1.662,9.219,9.219,0,0,0,.167.98.4.4,0,0,0,.335.208l2.952-.022a.383.383,0,0,0,.38-.383V40.733A.383.383,0,0,0,392.812,40.35Z" transform="translate(-275.701 -29.462)" fill="#fff"/>
        <path id="Path_11705" data-name="Path 11705" d="M453.87,18.4a8.581,8.581,0,0,0-4.363,1.155V11.413a.378.378,0,0,0-.378-.383h-4.6a.38.38,0,0,0-.38.383V35.464a.383.383,0,0,0,.38.386h3.2a.386.386,0,0,0,.335-.205,7.66,7.66,0,0,0,.194-1.109,8.257,8.257,0,0,0,5.451,1.786c4.191,0,6.592-2.124,6.592-9.539S456.463,18.4,453.87,18.4Zm-1.8,13.552a5.464,5.464,0,0,1-2.655-.766V23.57a6.082,6.082,0,0,1,2.356-.764c1.643-.148,3.238.348,3.238,4.266C455,31.2,454.285,32.018,452.073,31.954Z" transform="translate(-324.3 -8.054)" fill="#fff"/>
        <path id="Path_11706" data-name="Path 11706" d="M262.115,27.155h-3.449V22.6c0-.173-.089-.27-.289-.27h-4.7c-.183,0-.27.081-.27.256V27.3s-2.356.569-2.515.615a.38.38,0,0,0-.27.367v2.968a.378.378,0,0,0,.378.383h2.41v7.1c0,5.286,3.708,5.8,6.206,5.8a10.473,10.473,0,0,0,2.725-.448.351.351,0,0,0,.216-.343V40.5a.391.391,0,0,0-.383-.386c-.2,0-.715.084-1.244.084-1.692,0-2.267-.788-2.267-1.808V31.626h3.449a.38.38,0,0,0,.38-.383v-3.7A.381.381,0,0,0,262.115,27.155Z" transform="translate(-182.993 -16.304)" fill="#fff"/>
        <path id="Path_11707" data-name="Path 11707" d="M15.546,0a15.546,15.546,0,0,0-4.914,30.293c.777.14,1.06-.337,1.06-.75,0-.37,0-1.349-.019-2.644-4.326.939-5.238-2.072-5.238-2.072a4.117,4.117,0,0,0-1.724-2.272c-1.411-.966.105-.944.105-.944a3.265,3.265,0,0,1,2.383,1.6A3.31,3.31,0,0,0,11.722,24.5a3.306,3.306,0,0,1,.988-2.078c-3.451-.4-7.081-1.738-7.081-7.693a6,6,0,0,1,1.6-4.172A5.593,5.593,0,0,1,7.38,6.447s1.306-.418,4.274,1.592a14.723,14.723,0,0,1,7.782,0c2.968-2.01,4.272-1.592,4.272-1.592a5.584,5.584,0,0,1,.154,4.112,6,6,0,0,1,1.6,4.172c0,5.972-3.635,7.286-7.1,7.669a3.713,3.713,0,0,1,1.069,2.879c0,2.078-.019,3.754-.019,4.264,0,.416.27.9,1.079.747A15.546,15.546,0,0,0,15.546,0Z" transform="translate(-0.004 0)" fill="#fff"/>
      </g>
    </g>
  </g>
</svg>
