<svg xmlns="http://www.w3.org/2000/svg" width="136" height="64" viewBox="0 0 136 64">
  <g id="illustrator_logo" transform="translate(-4076 -4734)">
    <rect id="frame" width="136" height="64" transform="translate(4076 4734)" fill="none"/>
    <g id="vlpa" transform="translate(4111 4734)">
      <g id="vlpb">
        <g id="vlpc">
          <g id="vlpd">
            <path id="Path_11600" data-name="Path 11600" d="M11.624,0H54.017A11.614,11.614,0,0,1,65.641,11.624V52.376A11.614,11.614,0,0,1,54.017,64H11.624A11.614,11.614,0,0,1,0,52.376V11.624A11.614,11.614,0,0,1,11.624,0Z" fill="#300"/>
          </g>
        </g>
      </g>
      <g id="vlpe" transform="translate(13.481 14.195)">
        <g id="vlpf">
          <path id="Path_11601" data-name="Path 11601" d="M67.536,81.517H57.361l-2.079,6.427a.479.479,0,0,1-.52.383H49.621c-.3,0-.383-.164-.3-.492l8.807-25.354c.082-.274.164-.574.274-.9a9.554,9.554,0,0,0,.164-1.778.271.271,0,0,1,.219-.3h7.084c.219,0,.328.082.356.219L76.206,87.89c.082.3,0,.438-.274.438H70.216a.413.413,0,0,1-.438-.3Zm-8.588-5.552h6.947c-.164-.574-.383-1.258-.629-1.969-.246-.738-.492-1.532-.738-2.352-.274-.848-.52-1.668-.793-2.516s-.52-1.641-.738-2.434c-.219-.766-.41-1.477-.6-2.133h-.055a33.581,33.581,0,0,1-.93,3.528c-.41,1.313-.821,2.68-1.258,4.048C59.768,73.531,59.358,74.816,58.948,75.965Z" transform="translate(-49.29 -57.421)" fill="#ff9a00"/>
          <path id="Path_11602" data-name="Path 11602" d="M161.06,58.765a3.385,3.385,0,0,1-2.434-.957,3.553,3.553,0,0,1-.93-2.516,3.218,3.218,0,0,1,.985-2.434,3.5,3.5,0,0,1,2.434-.957,3.275,3.275,0,0,1,2.489.957,3.76,3.76,0,0,1-.055,4.95,3.216,3.216,0,0,1-2.489.957ZM158,82.505V61.445c0-.274.109-.383.356-.383h5.415c.246,0,.356.137.356.383v21.06c0,.3-.109.438-.356.438h-5.361A.383.383,0,0,1,158,82.505Z" transform="translate(-128.045 -51.9)" fill="#ff9a00"/>
        </g>
      </g>
    </g>
  </g>
</svg>
