<svg xmlns="http://www.w3.org/2000/svg" width="136" height="64" viewBox="0 0 136 64">
  <g id="js_logo" transform="translate(-4096 -4900)">
    <rect id="frame" width="136" height="64" transform="translate(4096 4900)" fill="none"/>
    <g id="Unofficial_JavaScript_logo_2" transform="translate(4132 4900)">
      <rect id="Rectangle_201" data-name="Rectangle 201" width="64" height="64" fill="#f7df1e"/>
      <path id="Path_11645" data-name="Path 11645" d="M192.02,306.847c1.289,2.1,2.966,3.652,5.933,3.652,2.492,0,4.084-1.245,4.084-2.966,0-2.062-1.636-2.793-4.378-3.992l-1.5-.645c-4.34-1.849-7.223-4.165-7.223-9.062,0-4.51,3.437-7.944,8.808-7.944,3.824,0,6.573,1.331,8.554,4.815l-4.683,3.007c-1.031-1.849-2.143-2.577-3.87-2.577a2.617,2.617,0,0,0-2.878,2.577c0,1.8,1.117,2.535,3.7,3.652l1.5.644c5.11,2.191,7.995,4.425,7.995,9.448,0,5.415-4.253,8.381-9.966,8.381-5.585,0-9.194-2.662-10.959-6.15Zm-21.245.521c.945,1.676,1.8,3.093,3.87,3.093,1.976,0,3.222-.773,3.222-3.779v-20.45h6.014v20.531c0,6.227-3.651,9.062-8.98,9.062a9.336,9.336,0,0,1-9.022-5.493Z" transform="translate(-149.029 -256.847)"/>
    </g>
  </g>
</svg>
