<svg xmlns="http://www.w3.org/2000/svg" xmlns:xlink="http://www.w3.org/1999/xlink" width="104" height="64" viewBox="0 0 104 64">
  <defs>
    <linearGradient id="linear-gradient" x1="0.682" y1="0.175" x2="0.278" y2="0.898" gradientUnits="objectBoundingBox">
      <stop offset="0" stop-color="#41873f"/>
      <stop offset="0.329" stop-color="#418b3d"/>
      <stop offset="0.635" stop-color="#419637"/>
      <stop offset="0.932" stop-color="#3fa92d"/>
      <stop offset="1" stop-color="#3fae2a"/>
    </linearGradient>
    <linearGradient id="linear-gradient-2" x1="0.433" y1="0.552" x2="1.592" y2="-0.183" gradientUnits="objectBoundingBox">
      <stop offset="0.138" stop-color="#41873f"/>
      <stop offset="0.403" stop-color="#54a044"/>
      <stop offset="0.714" stop-color="#66b848"/>
      <stop offset="0.908" stop-color="#6cc04a"/>
    </linearGradient>
    <linearGradient id="linear-gradient-3" x1="-44.138" y1="0.134" x2="53.279" y2="0.134" gradientUnits="objectBoundingBox">
      <stop offset="0.092" stop-color="#6cc04a"/>
      <stop offset="0.286" stop-color="#66b848"/>
      <stop offset="0.597" stop-color="#54a044"/>
      <stop offset="0.862" stop-color="#41873f"/>
    </linearGradient>
    <linearGradient id="linear-gradient-4" x1="-0.044" y1="0.5" x2="1.015" y2="0.5" xlink:href="#linear-gradient-3"/>
    <linearGradient id="linear-gradient-5" x1="-97.138" y1="0.362" x2="0.279" y2="0.362" xlink:href="#linear-gradient-3"/>
    <linearGradient id="linear-gradient-6" x1="-1.039" y1="0.503" x2="1.008" y2="0.503" xlink:href="#linear-gradient-3"/>
    <linearGradient id="linear-gradient-7" x1="1.306" y1="-2.111" x2="0.044" y2="2.016" xlink:href="#linear-gradient"/>
  </defs>
  <g id="nodejs-seeklogo.com" transform="translate(-0.231)">
    <path id="Path_14780" data-name="Path 14780" d="M208.642,213.006a2.055,2.055,0,0,1-.988-.26l-3.126-1.866c-.47-.26-.235-.354-.094-.4a5.684,5.684,0,0,0,1.41-.638.216.216,0,0,1,.235.024l2.4,1.441a.3.3,0,0,0,.282,0l9.38-5.457a.272.272,0,0,0,.141-.26V194.7a.272.272,0,0,0-.141-.26L208.76,189a.3.3,0,0,0-.282,0l-9.38,5.434a.3.3,0,0,0-.141.26v10.891a.3.3,0,0,0,.141.26l2.562,1.488c1.387.709,2.257-.118,2.257-.945V195.642a.287.287,0,0,1,.282-.284h1.2a.287.287,0,0,1,.282.284v10.749c0,1.866-1.011,2.953-2.774,2.953a4.018,4.018,0,0,1-2.163-.591l-2.468-1.418a2,2,0,0,1-.987-1.725V194.721a2,2,0,0,1,.987-1.725l9.38-5.457a2.089,2.089,0,0,1,1.975,0l9.38,5.457a2,2,0,0,1,.988,1.725v10.891a2,2,0,0,1-.988,1.725l-9.38,5.457A2.394,2.394,0,0,1,208.642,213.006Zm2.891-7.489c-4.114,0-4.96-1.89-4.96-3.5a.287.287,0,0,1,.282-.284h1.222a.242.242,0,0,1,.258.236c.188,1.252.729,1.866,3.221,1.866,1.975,0,2.821-.449,2.821-1.512,0-.614-.235-1.063-3.315-1.37-2.562-.26-4.161-.827-4.161-2.882,0-1.914,1.6-3.048,4.279-3.048,3.009,0,4.49,1.04,4.678,3.308a.382.382,0,0,1-.07.213.29.29,0,0,1-.188.094h-1.222a.276.276,0,0,1-.259-.213c-.282-1.3-1.011-1.725-2.939-1.725-2.163,0-2.421.756-2.421,1.323,0,.685.306.9,3.221,1.276,2.892.378,4.255.921,4.255,2.953C216.212,204.336,214.52,205.517,211.534,205.517Z" transform="translate(-156.975 -149.006)" fill="#539e43"/>
    <path id="Path_14781" data-name="Path 14781" d="M22.564,77.586a1.2,1.2,0,0,0-.611-1.04l-9.967-5.765a1.442,1.442,0,0,0-.541-.165h-.094a1.114,1.114,0,0,0-.541.165L.842,76.547a1.2,1.2,0,0,0-.611,1.04l.024,15.5a.588.588,0,0,0,.306.52.531.531,0,0,0,.588,0l5.924-3.4a1.2,1.2,0,0,0,.611-1.039V81.909a1.2,1.2,0,0,1,.611-1.039l2.515-1.465a1.134,1.134,0,0,1,.611-.165,1.006,1.006,0,0,1,.588.165l2.515,1.465a1.2,1.2,0,0,1,.611,1.039v7.253a1.2,1.2,0,0,0,.611,1.039l5.924,3.4a.571.571,0,0,0,.611,0,.588.588,0,0,0,.306-.52l-.024-15.5Z" transform="translate(0 -56.182)" fill="#fff"/>
    <path id="Path_14782" data-name="Path 14782" d="M283.7.071a.644.644,0,0,0-.588,0,.616.616,0,0,0-.306.52V15.947a.454.454,0,0,1-.212.378.448.448,0,0,1-.423,0l-2.492-1.441a1.207,1.207,0,0,0-1.2,0l-9.967,5.788a1.2,1.2,0,0,0-.611,1.039V33.264a1.2,1.2,0,0,0,.611,1.04l9.967,5.788a1.207,1.207,0,0,0,1.2,0l9.967-5.788a1.2,1.2,0,0,0,.611-1.04V4.465a1.213,1.213,0,0,0-.611-1.063L283.7.071Zm-.917,29.39a.271.271,0,0,1-.141.26L279.235,31.7a.346.346,0,0,1-.306,0l-3.409-1.984a.3.3,0,0,1-.141-.26V25.491a.271.271,0,0,1,.141-.26l3.409-1.985a.348.348,0,0,1,.306,0l3.409,1.985a.3.3,0,0,1,.141.26V29.46Z" transform="translate(-213.228)" fill="#fff"/>
    <g id="Group_5231" data-name="Group 5231" transform="translate(81.969 14.583)">
      <path id="Path_14783" data-name="Path 14783" d="M22.715,11.652a1.181,1.181,0,0,0,.588-1.04V7.8a1.232,1.232,0,0,0-.588-1.039L12.818,1a1.206,1.206,0,0,0-1.2,0L1.651,6.786A1.2,1.2,0,0,0,1.04,7.825V19.378a1.2,1.2,0,0,0,.611,1.039l9.9,5.67a1.162,1.162,0,0,0,1.175,0l5.995-3.355a.595.595,0,0,0,0-1.04L8.7,15.9a.616.616,0,0,1-.306-.52V11.77a.587.587,0,0,1,.306-.52l3.127-1.8a.571.571,0,0,1,.611,0l3.127,1.8a.616.616,0,0,1,.306.52v2.835a.587.587,0,0,0,.306.52.571.571,0,0,0,.611,0l5.924-3.473Z" transform="translate(-1.04 -0.838)" fill="#fff"/>
      <path id="Path_14784" data-name="Path 14784" d="M47.327,50.946a.213.213,0,0,1,.235,0l1.9,1.11a.248.248,0,0,1,.118.213V54.49a.248.248,0,0,1-.118.213l-1.9,1.11a.213.213,0,0,1-.235,0l-1.9-1.11a.248.248,0,0,1-.118-.213V52.27a.248.248,0,0,1,.118-.213l1.9-1.11Z" transform="translate(-36.302 -40.676)" fill="#fff"/>
    </g>
    <g id="Group_5235" data-name="Group 5235" transform="translate(27.454 12.687)">
      <path id="Path_14785" data-name="Path 14785" d="M12.146,1.229a1.206,1.206,0,0,0-1.2,0L1.05,6.969A1.181,1.181,0,0,0,.462,8.009V19.514a1.232,1.232,0,0,0,.588,1.04l9.9,5.741a1.207,1.207,0,0,0,1.2,0l9.9-5.741a1.181,1.181,0,0,0,.588-1.04V8.009a1.232,1.232,0,0,0-.588-1.039l-9.9-5.741Z" transform="translate(-0.368 0.874)" fill="url(#linear-gradient)"/>
      <g id="Group_5232" data-name="Group 5232" transform="translate(0 1.939)">
        <path id="Path_14786" data-name="Path 14786" d="M10.555,1.214.635,6.955A1.226,1.226,0,0,0,0,7.994V19.5a1.141,1.141,0,0,0,.306.756L11.448,1.072a1.337,1.337,0,0,0-.893.142Z" transform="translate(0 -1.051)" fill="none"/>
        <path id="Path_14787" data-name="Path 14787" d="M56.632,50.205a1.441,1.441,0,0,0,.282-.118l9.92-5.741a1.2,1.2,0,0,0,.611-1.04V31.8a1.206,1.206,0,0,0-.353-.827L56.632,50.205Z" transform="translate(-45.113 -24.858)" fill="none"/>
        <path id="Path_14788" data-name="Path 14788" d="M22.895,7.13,12.951,1.389a1.627,1.627,0,0,0-.306-.118L1.5,20.455a1.239,1.239,0,0,0,.329.283l9.944,5.741a1.141,1.141,0,0,0,.917.118L23.154,7.367a1.233,1.233,0,0,0-.259-.236Z" transform="translate(-1.197 -1.226)" fill="url(#linear-gradient-2)"/>
      </g>
      <g id="Group_5234" data-name="Group 5234" transform="translate(0 0)">
        <g id="Group_5233" data-name="Group 5233">
          <path id="Path_14789" data-name="Path 14789" d="M66.893,28.829V17.324a1.226,1.226,0,0,0-.635-1.04l-9.944-5.741a1.035,1.035,0,0,0-.376-.142L66.823,29.089a.478.478,0,0,0,.071-.26Z" transform="translate(-44.561 -8.441)" fill="none"/>
          <path id="Path_14790" data-name="Path 14790" d="M.635,39.088A1.226,1.226,0,0,0,0,40.128V51.633a1.278,1.278,0,0,0,.635,1.039l9.944,5.741a1.1,1.1,0,0,0,.776.142L.705,39.065l-.071.024Z" transform="translate(0 -31.245)" fill="none"/>
          <path id="Path_14791" data-name="Path 14791" d="M49.839.809,49.7.88h.188Z" transform="translate(-39.589 -0.809)" fill-rule="evenodd" fill="url(#linear-gradient-3)"/>
          <path id="Path_14792" data-name="Path 14792" d="M24.392,29.785a1.342,1.342,0,0,0,.588-.756L14.071,10.318a1.189,1.189,0,0,0-.846.142L3.352,16.177,14,35.691a1.641,1.641,0,0,0,.447-.142l9.944-5.765Z" transform="translate(-2.67 -8.357)" fill-rule="evenodd" fill="url(#linear-gradient-4)"/>
          <path id="Path_14793" data-name="Path 14793" d="M111.023,104.252l-.07-.118v.165Z" transform="translate(-88.385 -83.013)" fill-rule="evenodd" fill="url(#linear-gradient-5)"/>
          <path id="Path_14794" data-name="Path 14794" d="M66.19,102.6l-9.92,5.741a1.409,1.409,0,0,1-.447.142l.188.354,11-6.4v-.142l-.282-.473a1.1,1.1,0,0,1-.541.78Z" transform="translate(-44.469 -81.174)" fill-rule="evenodd" fill="url(#linear-gradient-6)"/>
          <path id="Path_14795" data-name="Path 14795" d="M66.19,102.6l-9.92,5.741a1.409,1.409,0,0,1-.447.142l.188.354,11-6.4v-.142l-.282-.473a1.1,1.1,0,0,1-.541.78Z" transform="translate(-44.469 -81.174)" fill-rule="evenodd" fill="url(#linear-gradient-7)"/>
        </g>
      </g>
    </g>
  </g>
</svg>
