<svg id="inverted-commas" xmlns="http://www.w3.org/2000/svg" width="128" height="94.506" viewBox="0 0 128 94.506">
  <path id="Path_12081" data-name="Path 12081" d="M56.242,77.1H25.2C25.727,54.472,32.145,51.9,40.2,51.17l3.108-.385V25.905L39.73,26.1c-10.525.592-22.161,2.49-29.925,12.073C3,46.572,0,60.3,0,81.368v39.043H56.242Z" transform="translate(71.758 -25.905)" fill="#ededed"/>
  <path id="Path_12082" data-name="Path 12082" d="M167.242,120.411V77.1H136.611c.531-22.626,6.741-25.195,14.8-25.928l2.9-.385V25.905l-3.376.192c-10.525.592-22.266,2.49-30.029,12.073C114.1,46.572,111,60.3,111,81.368v39.043Z" transform="translate(-111 -25.905)" fill="#ededed"/>
</svg>
